<svg version="1.2" xmlns="http://www.w3.org/2000/svg" viewBox="0 0 100 100" width="100" height="100">
	<title>efemkay 100px photopea file (psd)</title>
	<style>
		.s0 { fill: #2F4F4E } 
		.s1 { fill: #e69981 } 
	</style>
	<g id="Layer">
		<path id="Shape 1" class="s0" d="m1 41c0-22.1 17.9-40 40-40h18c22.1 0 40 17.9 40 40v18c0 22.1-17.9 40-40 40h-18c-22.1 0-40-17.9-40-40z"/>
		<path id="ε" class="s1" aria-label="ε"  d="m48.7 77.5q-8.5 0-13.6-2.2-5.1-2.3-7.4-5.8-2.3-3.6-2.3-7.4 0-3.9 2-7.2 2-3.3 6.9-5.4-4.2-1.8-6.1-4.6-1.8-2.8-1.8-6.8 0-4.4 2.4-8.1 2.5-3.7 7.6-5.9 5.1-2.3 13-2.3 5.9 0 10.3 1.1 4.5 1.1 7.6 2.9 3.2 1.7 5.2 3.5 0.9 1 1.2 1.8 0.3 0.7 0.3 1.3 0 1.3-1.1 2.5-1.1 1.2-2.7 1.2-0.7 0-1.5-0.3-0.8-0.3-1.5-0.9-3-2.4-7.2-4.1-4.2-1.7-10.6-1.7-4.7 0-8 1.1-3.2 1.1-5 3.2-1.7 2-1.7 4.9 0 4.1 3.3 5.9 3.4 1.8 8 1.8h12.2q1.8 0 2.8 1.1 1.1 1 1.1 2.6 0 1.3-1 2.5-0.9 1.1-2.8 1.1h-12.7q-6.8 0-9.5 2.3-2.6 2.3-2.6 5.5 0 4.5 3.9 6.8 3.9 2.3 11.3 2.3 3.4 0 6.8-0.6 3.4-0.6 6.3-1.5 3-1 4.7-2 1.1-0.7 1.8-1 0.8-0.3 1.4-0.3 1.8 0 2.7 1.3 1 1.2 1 2.3 0 1.1-0.5 1.8-0.4 0.7-1.5 1.7-1.7 1.4-5.1 2.7-3.4 1.3-7.9 2.1-4.5 0.8-9.7 0.8z"/>
	</g>
</svg>